<svg width="402" height="401" viewBox="0 0 402 401" fill="none" xmlns="http://www.w3.org/2000/svg">
<g id="Group 1">
<g id="crescent 2" filter="url(#filter0_d_2_10)">
<path d="M143.089 351.585C91.2618 345.154 85.4704 338.992 50.0887 318.585C46.8887 318.985 47.0887 321.751 47.5887 323.085C51.0887 326.918 58.1887 334.785 58.5887 335.585C58.9887 336.385 66.0887 342.918 69.5887 346.085C72.0887 348.751 77.8887 354.385 81.0887 355.585C81.5887 355.585 92.5887 366.085 102.589 369.585C102.589 370.585 131.089 383.585 139.089 385.585C139.489 386.385 159.255 390.251 169.089 392.085C175.255 392.918 188.589 394.385 192.589 393.585C192.989 394.385 208.422 393.251 216.089 392.585L219.089 392.085C228.589 390.751 250.389 386.885 261.589 382.085C262.089 382.585 304.089 363.085 316.589 352.085C317.789 352.485 336.422 333.918 345.589 324.585C350.255 319.585 361.089 306.785 367.089 295.585C368.089 293.585 377.589 280.585 382.589 265.085C384.089 263.085 390.089 247.085 393.589 231.085C397.01 215.447 399.089 195.085 399.089 194.585V163.585C398.755 156.585 396.989 139.085 392.589 125.085C387.089 107.585 388.089 110.085 387.089 107.585C385.589 105.085 380.089 91.0845 377.589 87.5845C375.089 84.0845 366.589 69.0845 366.089 69.0845C365.589 69.0845 359.089 58.5845 354.589 54.5845C352.089 52.5845 341.589 40.0845 332.089 33.0845C324.089 27.5845 314.089 20.5845 308.089 17.5845C307.089 16.5845 294.089 11.5845 293.589 11.0845C293.089 10.5845 285.589 8.08453 288.589 9.08452C283.089 6.58452 263.089 2.08453 258.589 1.58452C257.478 1.46105 244.089 -0.415483 243.089 0.0845171C242.089 0.584517 242.089 2.58452 243.089 3.08452C249.589 5.58452 269.089 12.5845 286.089 27.0845C306.089 46.6845 316.422 61.2512 319.089 66.0845C324.922 75.9178 337.789 101.885 342.589 127.085C345.089 131.585 346.089 179.085 342.589 196.085C339.089 213.085 329.589 242.585 314.089 266.585C309.589 273.085 293.589 294.085 275.589 308.585C261.189 320.185 249.255 327.085 245.089 329.085C226.755 338.585 180.689 356.385 143.089 351.585Z" fill="#FEFEFE"/>
</g>
<g id="crescent 1" filter="url(#filter1_d_2_10)">
<path d="M125.589 320.585C130.422 320.918 142.189 321.585 150.589 321.585C151.089 322.085 156.089 319.585 153.089 316.585C150.755 316.418 144.689 315.585 139.089 313.585C134.922 312.085 125.189 308.185 119.589 304.585C115.922 302.418 107.189 296.785 101.589 291.585C97.4221 287.751 87.8887 278.485 83.0887 272.085C80.0887 267.918 73.1887 257.685 69.5887 250.085C67.2554 244.751 62.1887 232.385 60.5887 225.585C59.0887 219.585 58.0887 213.585 57.5887 205.085C57.0862 196.541 56.0887 192.585 57.0887 186.585C57.0887 179.085 58.0887 173.585 59.0887 167.085C60.0887 160.585 60.5887 157.585 63.5887 149.585C65.5887 141.085 68.0887 135.585 71.5887 128.085C74.0887 123.585 79.8887 113.585 83.0887 109.585C84.5887 107.251 88.6887 101.585 93.0887 97.5845C94.7554 95.4179 98.9887 90.3845 102.589 87.5845C104.589 85.5845 109.714 82.0845 113.089 79.0845C114.589 77.7512 118.189 74.7845 120.589 73.5845C122.755 71.9179 127.889 68.2845 131.089 67.0845C134.589 64.0845 139.589 62.5845 150.089 58.0845C154.089 56.5845 163.789 53.2845 170.589 52.0845C191.589 48.5845 178.089 50.5845 187.089 49.5845H202.089C204.255 49.4179 210.189 49.4845 216.589 51.0845C220.422 51.7512 229.689 53.6845 236.089 56.0845C242.089 58.0845 250.775 61.1776 256.589 64.0845C260.589 66.0845 265.589 69.5845 270.089 72.5845C274.589 75.5845 277.589 76.5845 282.089 81.0845C286.589 85.0845 290.089 88.5845 291.589 90.0845C292.863 91.3593 300.589 100.085 301.589 100.585C302.589 101.085 304.589 99.5845 304.589 98.5845C304.589 97.5845 304.589 96.0845 301.589 92.0845C298.589 86.5845 298.089 85.5845 294.089 79.0845C290.089 72.5845 290.589 72.0845 285.589 66.0845C280.589 60.0845 279.589 59.0845 276.589 55.5845C272.089 51.0845 266.089 45.0845 261.589 41.0845C253.089 34.5845 247.589 30.0845 239.589 25.5845C229.844 20.1032 223.089 17.0845 209.589 13.0845C209.089 13.0845 190.589 8.08453 180.089 8.08453H160.089C159.589 8.08453 141.589 10.0845 137.089 11.0845C124.276 14.0413 120.206 15.541 110.996 18.9346L110.589 19.0845C96.5887 25.5845 88.0887 30.0845 86.0887 31.0845C84.0887 32.0845 67.0887 44.5845 65.0887 46.5845C63.0887 48.5845 56.5887 54.0845 53.5887 57.5845C50.5887 61.0845 42.5887 68.5845 39.5887 73.0845L29.5887 88.0845C27.5887 91.0845 22.0887 100.085 18.0887 109.085C17.5887 109.585 12.5887 122.085 10.0887 130.085C5.08873 149.085 5.08873 154.585 4.58873 157.585C4.42432 158.571 3.08873 184.085 5.08873 195.085C7.08873 210.085 7.05026 209.585 8.58873 214.585C10.5887 221.085 12.5887 228.085 16.5887 236.585C18.0887 240.251 21.9887 248.785 25.5887 253.585C30.5887 260.585 30.5887 262.37 35.5887 268.085C39.0887 272.085 49.0887 283.085 57.5887 290.085C66.0887 296.085 70.0887 299.585 76.0887 302.585C81.0887 306.085 100.089 313.585 102.089 314.585C103.689 315.385 118.422 318.918 125.589 320.585Z" fill="#FEFEFE"/>
</g>
</g>
<defs>
<filter id="filter0_d_2_10" x="44.7024" y="0" width="356.986" height="400.46" filterUnits="userSpaceOnUse" color-interpolation-filters="sRGB">
<feFlood flood-opacity="0" result="BackgroundImageFix"/>
<feColorMatrix in="SourceAlpha" type="matrix" values="0 0 0 0 0 0 0 0 0 0 0 0 0 0 0 0 0 0 127 0" result="hardAlpha"/>
<feOffset dy="4"/>
<feGaussianBlur stdDeviation="1.3"/>
<feComposite in2="hardAlpha" operator="out"/>
<feColorMatrix type="matrix" values="0 0 0 0 0 0 0 0 0 0 0 0 0 0 0 0 0 0 0.25 0"/>
<feBlend mode="normal" in2="BackgroundImageFix" result="effect1_dropShadow_2_10"/>
<feBlend mode="normal" in="SourceGraphic" in2="effect1_dropShadow_2_10" result="shape"/>
</filter>
<filter id="filter1_d_2_10" x="0" y="8.08453" width="308.589" height="321.564" filterUnits="userSpaceOnUse" color-interpolation-filters="sRGB">
<feFlood flood-opacity="0" result="BackgroundImageFix"/>
<feColorMatrix in="SourceAlpha" type="matrix" values="0 0 0 0 0 0 0 0 0 0 0 0 0 0 0 0 0 0 127 0" result="hardAlpha"/>
<feOffset dy="4"/>
<feGaussianBlur stdDeviation="2"/>
<feComposite in2="hardAlpha" operator="out"/>
<feColorMatrix type="matrix" values="0 0 0 0 0 0 0 0 0 0 0 0 0 0 0 0 0 0 0.25 0"/>
<feBlend mode="normal" in2="BackgroundImageFix" result="effect1_dropShadow_2_10"/>
<feBlend mode="normal" in="SourceGraphic" in2="effect1_dropShadow_2_10" result="shape"/>
</filter>
</defs>
</svg>
