<svg width="32" height="18" viewBox="0 0 32 18" fill="none" xmlns="http://www.w3.org/2000/svg">
<g id="Capa_1" clip-path="url(#clip0_1_2)">
<g id="world-map">
<g id="Group">
<g id="Group_2">
<path id="Vector" d="M10.768 11.4241C10.734 11.402 10.166 10.8881 10.025 10.7051C9.88696 10.5221 9.62096 10.4739 9.48196 10.4005C9.34196 10.3271 8.41796 10.0214 8.19596 10.1802C7.97696 10.3381 7.67496 10.4357 7.55796 10.1802C7.44296 9.92283 7.38496 9.88664 7.22296 9.85044C7.06096 9.81424 7.14196 9.61916 7.13096 9.44822C7.11796 9.27628 7.02596 9.09428 6.90996 9.21695C6.79396 9.33963 6.39996 9.65637 6.34296 9.49548C6.28496 9.33862 6.00596 8.67899 6.42396 8.55632C6.83996 8.43465 7.18796 8.50705 7.29296 8.61665C7.39696 8.72625 7.47696 9.03193 7.60596 8.99473C7.73396 8.95752 7.66396 8.72525 7.70996 8.53118C7.75596 8.33812 8.05896 8.0807 8.19596 7.81223C8.33496 7.54274 8.35796 7.38487 8.53096 7.31047C8.70696 7.23807 8.79896 7.14053 8.96096 7.01786C9.12396 6.89518 9.37696 6.78759 9.47196 6.72424C9.56496 6.6619 9.98096 6.45576 10.119 6.49297C10.258 6.53017 10.35 6.4799 10.235 6.27276C10.119 6.06562 9.96896 5.4432 9.74896 5.16265C9.52896 4.88211 9.50496 4.80669 9.40096 4.54023C9.29696 4.27075 9.17996 4.03948 9.09896 4.22248C9.01796 4.40649 8.84496 4.65084 8.75196 4.41755C8.65996 4.18628 8.67096 4.19734 8.55496 4.08774C8.43996 3.97914 8.34596 3.953 8.18496 3.90473C8.02296 3.85546 7.86096 3.9168 7.87196 4.07567C7.88296 4.23555 7.71996 4.5171 7.82596 4.72424C7.92996 4.93238 8.02296 5.1526 7.88296 5.225C7.74496 5.29739 7.88296 5.73882 7.74496 5.72474C7.60596 5.71368 7.53696 5.73882 7.53696 5.57794C7.53696 5.42007 7.60596 5.17572 7.34996 5.17572C7.09596 5.17572 6.94496 5.04199 6.75996 4.90725C6.57396 4.77351 6.42396 4.8449 6.46996 4.54123C6.51596 4.23555 6.44796 4.12595 6.65496 3.95501C6.86396 3.78508 6.91096 3.68653 7.06096 3.75994C7.21196 3.83334 7.31496 3.83334 7.40996 3.74787C7.50196 3.6624 7.67496 3.6986 7.67496 3.589C7.67496 3.4804 7.47796 3.4804 7.50196 3.29739C7.52396 3.11238 7.61796 3.21092 7.65196 2.90524C7.68596 2.60056 7.43196 2.13701 7.17696 2.19734C6.92096 2.25969 6.52896 2.61263 6.44796 2.45375C6.36596 2.29488 6.20396 2.36828 5.89096 2.47789C5.57796 2.58749 4.28096 2.36828 4.18896 2.25767C4.18896 2.25767 3.96796 2.09981 3.85196 2.18528C3.73696 2.27075 3.27296 2.23354 3.13396 2.20941C2.99396 2.18528 2.86696 2.36728 2.69496 2.30795C2.51896 2.24561 1.90596 2.12394 1.76796 2.0264C1.62696 1.92887 1.41796 1.92887 1.32796 1.8806C1.23496 1.83032 0.897959 1.8072 0.829959 1.90373C0.760959 2.00126 0.505959 2.17321 0.377959 2.29387C0.250959 2.41655 0.101959 2.39342 0.227959 2.64983C0.354959 2.90524 -0.0960412 3.06511 0.0189588 3.34465C0.133959 3.62318 -0.00404117 4.38035 0.458959 4.52816C0.922959 4.67497 1.30496 4.75943 1.57096 4.54123C1.83896 4.32102 2.24396 4.32102 2.37096 4.56537C2.49796 4.80871 2.56796 5.17472 2.98396 5.38186C3.39996 5.59101 3.75996 6.1893 3.73696 6.45778C3.71496 6.72625 3.74996 7.61615 4.17596 8.12997C4.60596 8.64279 5.04596 9.5709 5.07896 9.35069C5.11396 9.13048 5.11396 8.91027 5.20796 9.06914C5.29896 9.22902 5.54296 9.71771 5.93696 9.80217C6.33196 9.88764 6.52896 9.91077 6.67796 10.0596C6.82796 10.2054 6.95696 10.2899 7.11796 10.3643C7.27996 10.4377 7.67396 10.6579 7.75496 10.8047C7.83696 10.9515 7.80196 11.1466 7.71996 11.3668C7.63996 11.587 7.54696 11.8062 7.66196 12.0143C7.77896 12.2215 8.02196 12.8208 8.21996 12.9545C8.41696 13.0893 8.61196 13.3085 8.56596 13.6141C8.51996 13.9168 8.29996 15.223 8.32296 15.5166C8.34696 15.8082 8.05796 16.7725 8.28896 17.1637C8.51996 17.5548 8.91596 17.6775 9.08896 17.6262C9.26196 17.5789 9.12396 17.5659 9.04196 17.3829C8.96096 17.1989 8.97196 16.9676 9.06496 16.7976C9.15896 16.6257 9.15896 16.5282 9.11196 16.3331C9.06496 16.139 9.08896 16.0274 9.20396 15.8826C9.32096 15.7358 9.80696 15.3457 9.95796 15.1747C10.107 15.0038 11.059 13.8313 11.186 13.7328C11.313 13.6353 11.602 13.404 11.696 13.039C11.789 12.673 12.124 11.953 11.893 11.768C11.66 11.584 10.803 11.4492 10.768 11.4241Z" fill="black"/>
<path id="Vector_2" d="M13.084 1.12344C13.15 0.994728 13.31 0.669941 13.396 0.491962H9.72596C9.76996 0.688041 9.92896 1.41504 9.89896 1.70966C9.86396 2.05255 9.96896 1.93088 10.061 2.06562C10.154 2.19935 10.131 2.4075 10.073 2.56537C10.014 2.72424 9.97996 3.07819 10.167 3.49347C10.351 3.90876 10.571 4.43264 10.756 4.45778C10.943 4.48191 10.896 4.75038 11.024 4.65285C11.151 4.5533 11.173 4.33611 11.279 4.01836C11.383 3.70162 11.383 3.46833 11.65 3.31046C11.917 3.15159 12.657 2.63978 12.819 2.45476C12.982 2.27175 13.167 2.19835 13.109 1.88261C13.049 1.56386 12.992 1.30745 13.084 1.12344Z" fill="black"/>
<path id="Vector_3" d="M31.153 2.56436C31.014 2.46683 30.181 1.79614 29.821 1.88161C29.464 1.96708 28.825 1.68553 28.721 1.62419C28.617 1.56285 27.761 1.2994 27.309 1.28231C27.084 1.27427 26.139 1.0631 25.744 0.893169C25.35 0.722229 25.015 -0.1194 24.263 0.014336C24.166 0.0324356 23.256 0.161143 23.024 0.369288C22.794 0.577433 22.688 0.819765 22.561 0.869036C22.434 0.918307 22.063 0.89317 22.063 1.07718C22.063 1.26019 22.191 1.82228 22.041 1.71167C21.89 1.60207 21.739 1.34566 21.671 1.54073C21.602 1.73681 21.483 1.84641 21.415 1.772C21.347 1.69961 20.996 1.772 20.951 1.89468C20.905 2.01735 20.453 2.29588 20.258 2.3351C20.061 2.3713 19.979 2.46984 19.875 2.51911C19.771 2.56738 18.982 2.9344 18.833 2.79865C18.682 2.66491 18.636 2.75038 18.543 2.77552C18.543 2.77552 18.265 2.72625 18.092 2.50604C17.917 2.28683 17.883 2.35923 17.686 2.15209C17.49 1.94496 17.443 1.73782 17.246 1.82329C17.051 1.90775 16.217 2.77452 15.892 3.16466C15.569 3.55682 14.989 3.95803 15.278 4.23857C15.569 4.51911 15.718 4.48291 15.754 4.63978C15.79 4.79764 15.824 4.96959 15.87 5.03193C15.916 5.09327 16.194 5.31147 16.333 5.01886C16.474 4.72525 16.495 4.51911 16.658 4.56838C16.82 4.61665 16.854 4.72726 16.772 4.94646C16.691 5.16667 16.634 5.50755 16.356 5.49548C16.078 5.48342 15.778 5.31147 15.683 5.34867C15.591 5.38487 15.535 5.47035 15.429 5.55582C15.325 5.64129 15 6.0435 14.78 6.10483C14.561 6.16718 14.295 6.1169 14.445 6.2989C14.595 6.4809 14.815 6.88513 14.607 6.87306C14.399 6.85999 14.051 6.82479 14.028 7.03193C14.005 7.23807 13.913 7.36074 13.959 7.50755C14.005 7.65436 14.156 7.9349 14.34 7.83736C14.528 7.73782 14.886 7.64229 14.978 7.42208C15.071 7.20187 15.176 6.95954 15.407 6.9706C15.638 6.98266 16.195 7.28834 16.16 7.39795C16.125 7.50755 16.01 7.76396 16.149 7.67849C16.287 7.59302 16.403 7.49548 16.484 7.45928C16.565 7.42208 16.671 7.58196 16.704 7.64229C16.739 7.70463 16.971 7.8253 17.017 7.62922C17.064 7.43414 17.11 7.58196 17.247 7.64229C17.388 7.70463 17.804 7.75189 17.86 7.80116C17.92 7.84943 18.047 7.99624 17.884 8.19131C17.722 8.38638 17.535 8.4618 17.27 8.31398C17.003 8.16718 16.713 8.43666 16.414 8.28985C16.112 8.14305 16.251 7.9359 15.892 7.7901C15.535 7.6433 14.723 7.8253 14.467 7.8987C14.212 7.9711 14.201 7.99724 14.097 8.11791C13.993 8.24058 13.31 9.03294 13.31 9.48442C13.31 9.93591 13.564 11.1576 14.386 11.035C15.209 10.9123 15.707 10.9857 15.615 11.229C15.521 11.4744 15.569 11.5347 15.719 11.8152C15.869 12.0948 16.218 13.9631 16.275 14.2667C16.334 14.5734 16.23 14.9626 16.612 14.9012C16.995 14.8409 17.4 14.7444 17.561 14.3894C17.724 14.0355 17.748 13.6332 17.956 13.4261C18.165 13.218 18.42 13.218 18.442 12.9253C18.464 12.6317 18.384 11.9379 18.523 11.777C18.662 11.6192 19.31 10.8861 19.379 10.5935C19.449 10.3009 19.541 10.2275 19.275 10.2275C19.009 10.2275 18.557 10.1913 18.428 9.94697C18.302 9.70262 18 9.23907 18 9.13048C18 9.02087 18.186 9.03193 18.277 9.26421C18.37 9.49448 18.693 10.1923 19.064 10.0435C19.435 9.89669 19.957 9.72776 19.968 9.49448C19.979 9.26421 19.806 8.99473 19.619 9.00881C19.433 9.02087 19.237 8.88613 19.237 8.7524C19.237 8.61765 19.271 8.66793 19.491 8.7524C19.713 8.83787 19.781 8.98266 20.117 9.00881C20.453 9.03193 20.836 9.36175 21.02 9.50956C21.206 9.65637 21.529 10.6569 21.611 10.7534C21.691 10.8529 21.786 10.8529 21.866 10.6559C21.948 10.4598 22.295 9.83938 22.492 9.66642C22.689 9.49548 22.7 9.26522 22.815 9.41102C22.931 9.55783 23.429 9.92384 23.464 10.1441C23.499 10.3633 23.441 10.8389 23.545 10.6931C23.649 10.5463 23.731 10.2416 23.821 10.3763C23.915 10.5121 23.915 10.7192 24.134 10.5603C24.355 10.4025 24.737 10.3401 24.529 9.99825C24.321 9.65637 24.46 9.44923 24.589 9.43716C24.716 9.42409 25.585 9.26622 25.608 8.78859C25.631 8.31298 25.306 8.05657 25.46 7.81223C25.608 7.56788 25.828 7.34868 25.876 7.49548C25.922 7.64229 25.76 8.1169 25.968 8.0445C26.177 7.9711 26.42 7.9711 26.42 7.82329C26.42 7.67648 26.373 7.30946 26.467 7.21393C26.56 7.1164 27.241 6.46984 27.323 6.21343C27.404 5.95702 27.555 5.73782 27.427 5.54274C27.299 5.34767 27.08 5.408 27.253 5.16466C27.427 4.92032 27.717 4.69508 27.937 4.67598C28.64 4.61464 28.442 5.48945 28.453 5.68352C28.467 5.87859 28.467 6.36828 28.57 6.12394C28.674 5.8796 28.795 5.57995 29.004 5.37281C29.213 5.16567 29.327 5.03093 29.341 4.84792C29.353 4.66491 29.362 4.60458 29.561 4.50604C29.758 4.4085 30.626 4.06662 30.707 3.83535C30.787 3.60509 30.603 3.39493 30.811 3.40901C31.019 3.42007 31.216 3.65234 31.321 3.53068C31.426 3.40901 31.657 3.1898 31.645 3.06713C31.631 2.94345 31.294 2.6619 31.153 2.56436Z" fill="black"/>
<path id="Vector_4" d="M27.414 6.66491C27.344 6.82479 27.31 6.84893 27.206 7.17874C27.1 7.50755 27.135 7.42208 27.03 7.62922C26.926 7.83736 26.754 7.85948 26.579 7.99624C26.404 8.13098 26.358 8.39744 26.358 8.39744C26.208 8.60458 26.972 8.10383 27.238 7.94596C27.505 7.78809 27.436 7.60408 27.459 7.34767C27.482 7.09126 27.554 7.05405 27.667 6.94445C27.782 6.83585 27.69 6.61564 27.635 6.45778C27.574 6.2979 27.482 6.50705 27.414 6.66491Z" fill="black"/>
<path id="Vector_5" d="M25.039 12.2054C25.119 12.1441 25.061 12.0103 25.188 12.0344C25.316 12.0576 25.431 12.133 25.584 12.0475C25.733 11.961 25.861 11.9972 25.838 11.8524C25.816 11.7056 25.838 11.5106 25.804 11.3899C25.769 11.2672 25.561 11.23 25.409 11.3658C25.26 11.5005 25.052 11.7076 25.052 11.6332C25.052 11.5618 25.143 11.3658 25.097 11.2431C25.052 11.1214 25.119 11.0118 24.889 11.1094C24.657 11.2069 24.53 11.1828 24.449 11.3175C24.368 11.4522 24.275 11.6835 24.137 11.5367C23.997 11.3909 23.592 11.0862 23.592 11.0862C23.559 11.049 23.096 10.6699 23.258 10.9274C23.419 11.1848 23.662 11.6232 23.779 11.7821C23.893 11.9409 24.021 12.1239 24.16 12.0385C24.3 11.953 24.323 11.9289 24.509 12.0385C24.69 12.1451 24.958 12.2667 25.039 12.2054Z" fill="black"/>
<path id="Vector_6" d="M27.878 11.8645C27.656 11.767 27.749 11.6805 27.482 11.6332C27.215 11.586 26.996 11.6332 26.925 11.585C26.855 11.5357 26.509 11.414 26.555 11.585C26.602 11.7569 26.914 11.8042 26.994 11.8535C27.075 11.9027 26.879 12.0123 27.028 12.0968C27.178 12.1813 27.283 12.3411 27.48 12.2919C27.677 12.2426 27.747 12.3532 27.907 12.3773C28.07 12.4015 28.232 12.3532 28.165 12.2788C28.095 12.2064 28.05 12.1079 28.061 12.0234C28.072 11.9379 28.096 11.961 27.878 11.8645Z" fill="black"/>
<path id="Vector_7" d="M27.761 12.9505C27.68 12.7061 27.483 12.2557 27.438 12.4739C27.391 12.6941 27.078 12.8509 26.961 12.8389C26.855 12.8278 26.915 12.7172 26.915 12.6187C26.915 12.5211 26.854 12.4236 26.59 12.497C26.322 12.5704 26.267 12.8268 26.195 12.8027C26.127 12.7795 25.94 12.7293 25.825 12.865C25.71 12.9998 25.604 13.2552 25.467 13.3044C25.326 13.3537 24.863 13.414 24.863 13.6111C24.863 13.8052 24.98 14.0978 24.968 14.2577C24.956 14.4176 24.744 14.7816 25.026 14.8922C25.188 14.9565 25.303 14.9656 25.491 14.869C25.676 14.7705 26.474 14.5141 26.579 14.5986C26.683 14.684 26.852 14.8851 26.927 14.9284C27.074 15.0158 27.114 15.221 27.311 15.2692C27.505 15.3185 27.658 15.3426 27.738 15.3426C27.82 15.3426 28.108 15.2451 28.178 15.0732C28.247 14.9012 28.375 14.5 28.433 14.3039C28.493 14.1089 28.548 13.8897 28.375 13.7177C28.201 13.5488 27.842 13.1948 27.761 12.9505Z" fill="black"/>
<path id="Vector_8" d="M14.3077 6.24386C14.3077 6.3201 12.9602 6.69303 12.9602 6.69303C12.9602 6.69303 12.7723 6.75741 12.6853 6.69303C12.5983 6.62864 12.6853 6.55905 12.6853 6.48947C12.6853 6.45794 12.7924 6.37997 12.9096 6.30413C13.0211 6.23202 13 6.06053 12.8854 5.99365C12.781 5.93276 12.8105 5.89797 12.8854 5.84578C12.8971 5.83758 12.9131 5.82916 12.9318 5.8208C13.0615 5.76259 13.059 5.57529 13.1463 5.46304C13.1607 5.44459 13.1818 5.43822 13.2057 5.43926C13.262 5.44172 13.3666 5.37515 13.3899 5.32387C13.4807 5.12409 12.9599 5.0755 12.8463 5.26329C12.8446 5.26604 12.8432 5.26883 12.8419 5.27168C12.7984 5.36736 13.0419 5.60222 12.8854 5.6892C12.7288 5.77619 12.4504 5.7327 12.3548 5.7327C12.3523 5.7327 12.3501 5.73253 12.3479 5.73219C12.1678 5.70452 12.5983 5.50604 12.5983 5.32387C12.5983 5.29769 12.5749 5.27767 12.5457 5.26287C12.4975 5.2384 12.4708 5.17626 12.5026 5.1325C12.5026 5.1325 12.5548 5.03682 12.5983 5.1325C12.6267 5.19502 12.6737 5.12013 12.7029 5.06071C12.7087 5.04885 12.7288 4.95435 12.7288 4.94113C12.7288 4.86285 13.0506 4.86285 13.0593 4.94113C13.068 5.01942 13.0593 5.00202 13.1463 5.04552C13.2333 5.08901 13.3899 4.94113 13.3899 4.86285C13.3899 4.7061 13.3223 4.55012 13.3731 4.40184C13.4323 4.22934 13.5078 4.01674 13.5377 3.9669C13.5899 3.87992 14.0423 3.9669 13.9484 4.0191C13.8544 4.07129 13.8944 4.07998 13.877 4.16697C13.8596 4.25396 13.9901 4.16697 14.0945 4.16697C14.3432 4.16697 13.9583 4.62631 13.9828 4.87382C14.0132 5.18092 14.0581 5.55506 14.0945 5.52393C14.1322 5.49159 14.1766 5.49933 14.2049 5.5099C14.2247 5.51727 14.2393 5.53325 14.2503 5.55125C14.2843 5.6067 14.2773 5.67793 14.2332 5.7257L14.1869 5.77586C14.0731 5.89906 14.1297 6.08705 14.2638 6.18773C14.2906 6.20784 14.3077 6.22721 14.3077 6.24386Z" fill="black"/>
</g>
</g>
</g>
</g>
<defs>
<clipPath id="clip0_1_2">
<rect width="31.645" height="17.6373" fill="white"/>
</clipPath>
</defs>
</svg>
