<svg width="32" height="18" viewBox="0 0 32 18" fill="none" xmlns="http://www.w3.org/2000/svg">
<g id="world-map">
<g id="Group">
<g id="Group_2">
<path id="Vector" d="M10.768 11.3613C10.734 11.3393 10.166 10.8283 10.025 10.6463C9.88696 10.4643 9.62096 10.4163 9.48196 10.3433C9.34196 10.2703 8.41796 9.96626 8.19596 10.1243C7.97696 10.2813 7.67496 10.3783 7.55796 10.1243C7.44296 9.86826 7.38496 9.83226 7.22296 9.79626C7.06096 9.76026 7.14196 9.56626 7.13096 9.39626C7.11796 9.22526 7.02596 9.04426 6.90996 9.16626C6.79396 9.28826 6.39996 9.60326 6.34296 9.44326C6.28496 9.28726 6.00596 8.63126 6.42396 8.50926C6.83996 8.38826 7.18796 8.46026 7.29296 8.56926C7.39696 8.67826 7.47696 8.98226 7.60596 8.94526C7.73396 8.90826 7.66396 8.67726 7.70996 8.48426C7.75596 8.29226 8.05896 8.03626 8.19596 7.76926C8.33496 7.50126 8.35796 7.34426 8.53096 7.27026C8.70696 7.19826 8.79896 7.10126 8.96096 6.97926C9.12396 6.85726 9.37696 6.75026 9.47196 6.68726C9.56496 6.62526 9.98096 6.42026 10.119 6.45726C10.258 6.49426 10.35 6.44426 10.235 6.23826C10.119 6.03226 9.96896 5.41326 9.74896 5.13426C9.52896 4.85526 9.50496 4.78026 9.40096 4.51526C9.29696 4.24726 9.17996 4.01726 9.09896 4.19926C9.01796 4.38226 8.84496 4.62526 8.75196 4.39326C8.65996 4.16326 8.67096 4.17426 8.55496 4.06526C8.43996 3.95726 8.34596 3.93126 8.18496 3.88326C8.02296 3.83426 7.86096 3.89526 7.87196 4.05326C7.88296 4.21226 7.71996 4.49226 7.82596 4.69826C7.92996 4.90526 8.02296 5.12426 7.88296 5.19626C7.74496 5.26826 7.88296 5.70726 7.74496 5.69326C7.60596 5.68226 7.53696 5.70726 7.53696 5.54726C7.53696 5.39026 7.60596 5.14726 7.34996 5.14726C7.09596 5.14726 6.94496 5.01426 6.75996 4.88026C6.57396 4.74726 6.42396 4.81826 6.46996 4.51626C6.51596 4.21226 6.44796 4.10326 6.65496 3.93326C6.86396 3.76426 6.91096 3.66626 7.06096 3.73926C7.21196 3.81226 7.31496 3.81226 7.40996 3.72726C7.50196 3.64226 7.67496 3.67826 7.67496 3.56926C7.67496 3.46126 7.47796 3.46126 7.50196 3.27926C7.52396 3.09526 7.61796 3.19326 7.65196 2.88926C7.68596 2.58626 7.43196 2.12526 7.17696 2.18526C6.92096 2.24726 6.52896 2.59826 6.44796 2.44026C6.36596 2.28226 6.20396 2.35526 5.89096 2.46426C5.57796 2.57326 4.28096 2.35526 4.18896 2.24526C4.18896 2.24526 3.96796 2.08826 3.85196 2.17326C3.73696 2.25826 3.27296 2.22126 3.13396 2.19726C2.99396 2.17326 2.86696 2.35426 2.69496 2.29526C2.51896 2.23326 1.90596 2.11226 1.76796 2.01526C1.62696 1.91826 1.41796 1.91826 1.32796 1.87026C1.23496 1.82026 0.897959 1.79726 0.829959 1.89326C0.760959 1.99026 0.505959 2.16126 0.377959 2.28126C0.250959 2.40326 0.101959 2.38026 0.227959 2.63526C0.354959 2.88926 -0.0960412 3.04826 0.0189588 3.32626C0.133959 3.60326 -0.00404116 4.35626 0.458959 4.50326C0.922959 4.64926 1.30496 4.73326 1.57096 4.51626C1.83896 4.29726 2.24396 4.29726 2.37096 4.54026C2.49796 4.78226 2.56796 5.14626 2.98396 5.35226C3.39996 5.56026 3.75996 6.15526 3.73696 6.42226C3.71496 6.68926 3.74996 7.57426 4.17596 8.08526C4.60596 8.59526 5.04596 9.51826 5.07896 9.29926C5.11396 9.08026 5.11396 8.86126 5.20796 9.01926C5.29896 9.17826 5.54296 9.66426 5.93696 9.74826C6.33196 9.83326 6.52896 9.85626 6.67796 10.0043C6.82796 10.1493 6.95696 10.2333 7.11796 10.3073C7.27996 10.3803 7.67396 10.5993 7.75496 10.7453C7.83696 10.8913 7.80196 11.0853 7.71996 11.3043C7.63996 11.5233 7.54696 11.7413 7.66196 11.9483C7.77896 12.1543 8.02196 12.7503 8.21996 12.8833C8.41696 13.0173 8.61196 13.2353 8.56596 13.5393C8.51996 13.8403 8.29996 15.1393 8.32296 15.4313C8.34696 15.7213 8.05796 16.6803 8.28896 17.0693C8.51996 17.4583 8.91596 17.5803 9.08896 17.5293C9.26196 17.4823 9.12396 17.4693 9.04196 17.2873C8.96096 17.1043 8.97196 16.8743 9.06496 16.7053C9.15896 16.5343 9.15896 16.4373 9.11196 16.2433C9.06496 16.0503 9.08896 15.9393 9.20396 15.7953C9.32096 15.6493 9.80696 15.2613 9.95796 15.0913C10.107 14.9213 11.059 13.7553 11.186 13.6573C11.313 13.5603 11.602 13.3303 11.696 12.9673C11.789 12.6033 12.124 11.8873 11.893 11.7033C11.66 11.5203 10.803 11.3863 10.768 11.3613Z" fill="black"/>
<path id="Vector_2" d="M13.084 1.11726C13.15 0.989256 13.31 0.666256 13.396 0.489256H9.72596C9.76996 0.684256 9.92896 1.40726 9.89896 1.70026C9.86396 2.04126 9.96896 1.92026 10.061 2.05426C10.154 2.18726 10.131 2.39426 10.073 2.55126C10.014 2.70926 9.97996 3.06126 10.167 3.47426C10.351 3.88726 10.571 4.40826 10.756 4.43326C10.943 4.45726 10.896 4.72426 11.024 4.62726C11.151 4.52826 11.173 4.31226 11.279 3.99626C11.383 3.68126 11.383 3.44926 11.65 3.29226C11.917 3.13426 12.657 2.62526 12.819 2.44126C12.982 2.25926 13.167 2.18626 13.109 1.87226C13.049 1.55526 12.992 1.30026 13.084 1.11726Z" fill="black"/>
<path id="Vector_3" d="M31.153 2.55026C31.014 2.45326 30.181 1.78626 29.821 1.87126C29.464 1.95626 28.825 1.67626 28.721 1.61526C28.617 1.55426 27.761 1.29226 27.309 1.27526C27.084 1.26726 26.139 1.05726 25.744 0.888256C25.35 0.718256 25.015 -0.118744 24.263 0.0142564C24.166 0.0322564 23.256 0.160256 23.024 0.367256C22.794 0.574256 22.688 0.815256 22.561 0.864256C22.434 0.913256 22.063 0.888257 22.063 1.07126C22.063 1.25326 22.191 1.81226 22.041 1.70226C21.89 1.59326 21.739 1.33826 21.671 1.53226C21.602 1.72726 21.483 1.83626 21.415 1.76226C21.347 1.69026 20.996 1.76226 20.951 1.88426C20.905 2.00626 20.453 2.28326 20.258 2.32226C20.061 2.35826 19.979 2.45626 19.875 2.50526C19.771 2.55326 18.982 2.91826 18.833 2.78326C18.682 2.65026 18.636 2.73526 18.543 2.76026C18.543 2.76026 18.265 2.71126 18.092 2.49226C17.917 2.27426 17.883 2.34626 17.686 2.14026C17.49 1.93426 17.443 1.72826 17.246 1.81326C17.051 1.89726 16.217 2.75926 15.892 3.14726C15.569 3.53726 14.989 3.93626 15.278 4.21526C15.569 4.49426 15.718 4.45826 15.754 4.61426C15.79 4.77126 15.824 4.94226 15.87 5.00426C15.916 5.06526 16.194 5.28226 16.333 4.99126C16.474 4.69926 16.495 4.49426 16.658 4.54326C16.82 4.59126 16.854 4.70126 16.772 4.91926C16.691 5.13826 16.634 5.47726 16.356 5.46526C16.078 5.45326 15.778 5.28226 15.683 5.31926C15.591 5.35526 15.535 5.44026 15.429 5.52526C15.325 5.61026 15 6.01026 14.78 6.07126C14.561 6.13326 14.295 6.08326 14.445 6.26426C14.595 6.44526 14.815 6.84726 14.607 6.83526C14.399 6.82226 14.051 6.78726 14.028 6.99326C14.005 7.19826 13.913 7.32026 13.959 7.46626C14.005 7.61226 14.156 7.89126 14.34 7.79426C14.528 7.69526 14.886 7.60026 14.978 7.38126C15.071 7.16226 15.176 6.92126 15.407 6.93226C15.638 6.94426 16.195 7.24826 16.16 7.35726C16.125 7.46626 16.01 7.72126 16.149 7.63626C16.287 7.55126 16.403 7.45426 16.484 7.41826C16.565 7.38126 16.671 7.54026 16.704 7.60026C16.739 7.66226 16.971 7.78226 17.017 7.58726C17.064 7.39326 17.11 7.54026 17.247 7.60026C17.388 7.66226 17.804 7.70926 17.86 7.75826C17.92 7.80626 18.047 7.95226 17.884 8.14626C17.722 8.34026 17.535 8.41526 17.27 8.26826C17.003 8.12226 16.713 8.39026 16.414 8.24426C16.112 8.09826 16.251 7.89226 15.892 7.74726C15.535 7.60126 14.723 7.78226 14.467 7.85526C14.212 7.92726 14.201 7.95326 14.097 8.07326C13.993 8.19526 13.31 8.98326 13.31 9.43226C13.31 9.88126 13.564 11.0963 14.386 10.9743C15.209 10.8523 15.707 10.9253 15.615 11.1673C15.521 11.4113 15.569 11.4713 15.719 11.7503C15.869 12.0283 16.218 13.8863 16.275 14.1883C16.334 14.4933 16.23 14.8803 16.612 14.8193C16.995 14.7593 17.4 14.6633 17.561 14.3103C17.724 13.9583 17.748 13.5583 17.956 13.3523C18.165 13.1453 18.42 13.1453 18.442 12.8543C18.464 12.5623 18.384 11.8723 18.523 11.7123C18.662 11.5553 19.31 10.8263 19.379 10.5353C19.449 10.2443 19.541 10.1713 19.275 10.1713C19.009 10.1713 18.557 10.1353 18.428 9.89226C18.302 9.64926 18 9.18826 18 9.08026C18 8.97126 18.186 8.98226 18.277 9.21326C18.37 9.44226 18.693 10.1363 19.064 9.98826C19.435 9.84226 19.957 9.67426 19.968 9.44226C19.979 9.21326 19.806 8.94526 19.619 8.95926C19.433 8.97126 19.237 8.83726 19.237 8.70426C19.237 8.57026 19.271 8.62026 19.491 8.70426C19.713 8.78926 19.781 8.93326 20.117 8.95926C20.453 8.98226 20.836 9.31026 21.02 9.45726C21.206 9.60326 21.529 10.5983 21.611 10.6943C21.691 10.7933 21.786 10.7933 21.866 10.5973C21.948 10.4023 22.295 9.78526 22.492 9.61326C22.689 9.44326 22.7 9.21426 22.815 9.35926C22.931 9.50526 23.429 9.86926 23.464 10.0883C23.499 10.3063 23.441 10.7793 23.545 10.6343C23.649 10.4883 23.731 10.1853 23.821 10.3193C23.915 10.4543 23.915 10.6603 24.134 10.5023C24.355 10.3453 24.737 10.2833 24.529 9.94326C24.321 9.60326 24.46 9.39726 24.589 9.38526C24.716 9.37226 25.585 9.21526 25.608 8.74026C25.631 8.26726 25.306 8.01226 25.46 7.76926C25.608 7.52626 25.828 7.30826 25.876 7.45426C25.922 7.60026 25.76 8.07226 25.968 8.00026C26.177 7.92726 26.42 7.92726 26.42 7.78026C26.42 7.63426 26.373 7.26926 26.467 7.17426C26.56 7.07726 27.241 6.43426 27.323 6.17926C27.404 5.92426 27.555 5.70626 27.427 5.51226C27.299 5.31826 27.08 5.37826 27.253 5.13626C27.427 4.89326 27.717 4.66926 27.937 4.65026C28.64 4.58926 28.442 5.45926 28.453 5.65226C28.467 5.84626 28.467 6.33326 28.57 6.09026C28.674 5.84726 28.795 5.54926 29.004 5.34326C29.213 5.13726 29.327 5.00326 29.341 4.82126C29.353 4.63926 29.362 4.57926 29.561 4.48126C29.758 4.38426 30.626 4.04426 30.707 3.81426C30.787 3.58526 30.603 3.37626 30.811 3.39026C31.019 3.40126 31.216 3.63226 31.321 3.51126C31.426 3.39026 31.657 3.17226 31.645 3.05026C31.631 2.92726 31.294 2.64726 31.153 2.55026Z" fill="black"/>
<path id="Vector_4" d="M27.414 6.62826C27.344 6.78726 27.31 6.81126 27.206 7.13926C27.1 7.46626 27.135 7.38126 27.03 7.58726C26.926 7.79426 26.754 7.81626 26.579 7.95226C26.404 8.08626 26.358 8.35126 26.358 8.35126C26.208 8.55726 26.972 8.05926 27.238 7.90226C27.505 7.74526 27.436 7.56226 27.459 7.30726C27.482 7.05226 27.554 7.01526 27.667 6.90626C27.782 6.79826 27.69 6.57926 27.635 6.42226C27.574 6.26326 27.482 6.47126 27.414 6.62826Z" fill="black"/>
<path id="Vector_5" d="M25.039 12.1383C25.119 12.0773 25.061 11.9443 25.188 11.9683C25.316 11.9913 25.431 12.0663 25.584 11.9813C25.733 11.8953 25.861 11.9313 25.838 11.7873C25.816 11.6413 25.838 11.4473 25.804 11.3273C25.769 11.2053 25.561 11.1683 25.409 11.3033C25.26 11.4373 25.052 11.6433 25.052 11.5693C25.052 11.4983 25.143 11.3033 25.097 11.1813C25.052 11.0603 25.119 10.9513 24.889 11.0483C24.657 11.1453 24.53 11.1213 24.449 11.2553C24.368 11.3893 24.275 11.6193 24.137 11.4733C23.997 11.3283 23.592 11.0253 23.592 11.0253C23.559 10.9883 23.096 10.6113 23.258 10.8673C23.419 11.1233 23.662 11.5593 23.779 11.7173C23.893 11.8753 24.021 12.0573 24.16 11.9723C24.3 11.8873 24.323 11.8633 24.509 11.9723C24.69 12.0783 24.958 12.1993 25.039 12.1383Z" fill="black"/>
<path id="Vector_6" d="M27.878 11.7993C27.656 11.7023 27.749 11.6163 27.482 11.5693C27.215 11.5223 26.996 11.5693 26.925 11.5213C26.855 11.4723 26.509 11.3513 26.555 11.5213C26.602 11.6923 26.914 11.7393 26.994 11.7883C27.075 11.8373 26.879 11.9463 27.028 12.0303C27.178 12.1143 27.283 12.2733 27.48 12.2243C27.677 12.1753 27.747 12.2853 27.907 12.3093C28.07 12.3333 28.232 12.2853 28.165 12.2113C28.095 12.1393 28.05 12.0413 28.061 11.9573C28.072 11.8723 28.096 11.8953 27.878 11.7993Z" fill="black"/>
<path id="Vector_7" d="M27.761 12.8793C27.68 12.6363 27.483 12.1883 27.438 12.4053C27.391 12.6243 27.078 12.7803 26.961 12.7683C26.855 12.7573 26.915 12.6473 26.915 12.5493C26.915 12.4523 26.854 12.3553 26.59 12.4283C26.322 12.5013 26.267 12.7563 26.195 12.7323C26.127 12.7093 25.94 12.6593 25.825 12.7943C25.71 12.9283 25.604 13.1823 25.467 13.2313C25.326 13.2803 24.863 13.3403 24.863 13.5363C24.863 13.7293 24.98 14.0203 24.968 14.1793C24.956 14.3383 24.744 14.7003 25.026 14.8103C25.188 14.8743 25.303 14.8833 25.491 14.7873C25.676 14.6893 26.474 14.4343 26.579 14.5183C26.683 14.6033 26.852 14.8033 26.927 14.8463C27.074 14.9333 27.114 15.1373 27.311 15.1853C27.505 15.2343 27.658 15.2583 27.738 15.2583C27.82 15.2583 28.108 15.1613 28.178 14.9903C28.247 14.8193 28.375 14.4203 28.433 14.2253C28.493 14.0313 28.548 13.8133 28.375 13.6423C28.201 13.4743 27.842 13.1223 27.761 12.8793Z" fill="black"/>
</g>
</g>
</g>
</svg>
